<?xml version="1.0" encoding="UTF-8"?>
<svg width="75px" height="67px" viewBox="0 0 75 67" version="1.1" xmlns="http://www.w3.org/2000/svg" xmlns:xlink="http://www.w3.org/1999/xlink">
    <!-- Generator: Sketch 48.2 (47327) - http://www.bohemiancoding.com/sketch -->
    <title>illu 1</title>
    <desc>Created with Sketch.</desc>
    <defs></defs>
    <g id="Artboard-2" stroke="none" stroke-width="1" fill="none" fill-rule="evenodd" transform="translate(-1044.000000, -79.000000)" stroke-linecap="round">
        <g id="header" transform="translate(-43.000000, 0.000000)" stroke="#488391" stroke-width="2">
            <g id="illu-1" transform="translate(1088.000000, 81.000000)">
                <g id="Group-3" transform="translate(40.000000, 0.000000)">
                    <path d="M0,10 C6.3946745,9.54705091 11.7566537,6.21371758 16.0859375,0 C20.1510417,6.66666667 25.7890625,10 33,10" id="Line-2"></path>
                    <path d="M0,20 C6.3946745,19.5470509 11.7566537,16.2137176 16.0859375,10 C20.1510417,16.6666667 25.7890625,20 33,20" id="Line-2-Copy"></path>
                    <path d="M0,30 C6.3946745,29.5470509 11.7566537,26.2137176 16.0859375,20 C20.1510417,26.6666667 25.7890625,30 33,30" id="Line-2-Copy-2"></path>
                    <path d="M16,21 L16,49" id="Line-3"></path>
                </g>
                <g id="Group-3-Copy" transform="translate(0.000000, 15.000000)">
                    <path d="M0,10 C6.3946745,9.54705091 11.7566537,6.21371758 16.0859375,0 C20.1510417,6.66666667 25.7890625,10 33,10" id="Line-2"></path>
                    <path d="M0,20 C6.3946745,19.5470509 11.7566537,16.2137176 16.0859375,10 C20.1510417,16.6666667 25.7890625,20 33,20" id="Line-2-Copy"></path>
                    <path d="M0,30 C6.3946745,29.5470509 11.7566537,26.2137176 16.0859375,20 C20.1510417,26.6666667 25.7890625,30 33,30" id="Line-2-Copy-2"></path>
                    <path d="M16,21 L16,49" id="Line-3"></path>
                </g>
            </g>
        </g>
    </g>
</svg>