<svg width="26px" height="66px" viewBox="0 0 26 66" version="1.1" xmlns="http://www.w3.org/2000/svg" xmlns:xlink="http://www.w3.org/1999/xlink">
    <g id="Page-1" stroke="none" stroke-width="1" fill="none" fill-rule="evenodd">
        <g id="scroll-down" fill="#ffffff">
            <path d="M3,13.0007643 L3,31.9992357 C3,37.5267679 7.47459125,42 13,42 C18.5237851,42 23,37.5231464 23,31.9992357 L23,13.0007643 C23,7.47323209 18.5254087,3 13,3 C7.47621492,3 3,7.4768536 3,13.0007643 Z M0,13.0007643 C0,5.82064044 5.81871963,0 13,0 C20.1797017,0 26,5.81381724 26,13.0007643 L26,31.9992357 C26,39.1793596 20.1812804,45 13,45 C5.82029825,45 0,39.1861828 0,31.9992357 L0,13.0007643 Z" id="Rectangle" fill-rule="nonzero"></path>
            <rect id="Rectangle-2" x="9" y="9" width="8" height="12" rx="4"></rect>
            <path d="M2.53683397,51.9160372 C1.93817785,51.3434096 0.988664803,51.3645099 0.416037214,51.963166 C-0.156590375,52.5618221 -0.135490085,53.5113352 0.463166031,54.0839628 L13,66.075717 L25.536834,54.0839628 C26.1354901,53.5113352 26.1565904,52.5618221 25.5839628,51.963166 C25.0113352,51.3645099 24.0618221,51.3434096 23.463166,51.9160372 L13,61.924283 L2.53683397,51.9160372 Z" id="Line" fill-rule="nonzero"></path>
        </g>
    </g>
</svg>
